<?xml version="1.0" encoding="UTF-8"?>
<svg width="800" height="400" viewBox="0 0 800 400" fill="none" xmlns="http://www.w3.org/2000/svg">
  <rect width="800" height="400" fill="#F3F4F6" class="dark:hidden"/>
  <rect width="800" height="400" fill="#1F2937" class="hidden dark:block"/>
  <path d="M400 200C400 310.457 310.457 400 200 400C89.5431 400 0 310.457 0 200C0 89.5431 89.5431 0 200 0C310.457 0 400 89.5431 400 200Z" fill="#E5E7EB" class="dark:fill-gray-600"/>
  <path d="M200 100C200 111.046 191.046 120 180 120C168.954 120 160 111.046 160 100C160 88.9543 168.954 80 180 80C191.046 80 200 88.9543 200 100Z" fill="#9CA3AF" class="dark:fill-gray-400"/>
  <path d="M240 260L200 220L120 300H280L240 260Z" fill="#9CA3AF" class="dark:fill-gray-400"/>
</svg>
